<svg xmlns="http://www.w3.org/2000/svg" xmlns:xlink="http://www.w3.org/1999/xlink" viewBox="0 0 106 106">
  <g fill="#CE412B" transform="translate(53 53)">
    <path stroke="#CE412B" stroke-linejoin="round" d="M-8-14H5c8 0 8 8 0 8H-8Zm-31 37H1V12h-9V4H2c11 0 5 19 14 19h25V4h-6v2c0 8-9 7-10 2s-5-9-6-9c15-8 6-24-6-24h-47v11h10v26h-15Z"/>
    <g mask="url(#a)">
      <circle r="43" fill="none" stroke="#CE412B" stroke-width="9"/>
      <path id="b" stroke="#CE412B" stroke-linejoin="round" stroke-width="3" d="m46 3 5-3-5-3z"/>
      <use xlink:href="#b" transform="rotate(11)"/>
      <use xlink:href="#b" transform="rotate(23)"/>
      <use xlink:href="#b" transform="rotate(34)"/>
      <use xlink:href="#b" transform="rotate(45)"/>
      <use xlink:href="#b" transform="rotate(56)"/>
      <use xlink:href="#b" transform="rotate(68)"/>
      <use xlink:href="#b" transform="rotate(79)"/>
      <use xlink:href="#b" transform="rotate(90)"/>
      <use xlink:href="#b" transform="rotate(101)"/>
      <use xlink:href="#b" transform="rotate(113)"/>
      <use xlink:href="#b" transform="rotate(124)"/>
      <use xlink:href="#b" transform="rotate(135)"/>
      <use xlink:href="#b" transform="rotate(146)"/>
      <use xlink:href="#b" transform="rotate(158)"/>
      <use xlink:href="#b" transform="rotate(169)"/>
      <use xlink:href="#b" transform="rotate(180)"/>
      <use xlink:href="#b" transform="rotate(191)"/>
      <use xlink:href="#b" transform="rotate(203)"/>
      <use xlink:href="#b" transform="rotate(214)"/>
      <use xlink:href="#b" transform="rotate(225)"/>
      <use xlink:href="#b" transform="rotate(236)"/>
      <use xlink:href="#b" transform="rotate(248)"/>
      <use xlink:href="#b" transform="rotate(259)"/>
      <use xlink:href="#b" transform="rotate(270)"/>
      <use xlink:href="#b" transform="rotate(281)"/>
      <use xlink:href="#b" transform="rotate(293)"/>
      <use xlink:href="#b" transform="rotate(304)"/>
      <use xlink:href="#b" transform="rotate(315)"/>
      <use xlink:href="#b" transform="rotate(326)"/>
      <use xlink:href="#b" transform="rotate(338)"/>
      <use xlink:href="#b" transform="rotate(349)"/>
      <path id="c" stroke="#CE412B" stroke-linejoin="round" stroke-width="6" d="m-7-42 7 7 7-7z"/>
      <use xlink:href="#c" transform="rotate(72)"/>
      <use xlink:href="#c" transform="rotate(144)"/>
      <use xlink:href="#c" transform="rotate(216)"/>
      <use xlink:href="#c" transform="rotate(288)"/>
    </g>
    <mask id="a">
      <path fill="#fff" d="M-60-60H60V60H-60z"/>
      <circle id="d" cy="-40" r="3"/>
      <use xlink:href="#d" transform="rotate(72)"/>
      <use xlink:href="#d" transform="rotate(144)"/>
      <use xlink:href="#d" transform="rotate(216)"/>
      <use xlink:href="#d" transform="rotate(288)"/>
    </mask>
  </g>
</svg>
