<svg xmlns="http://www.w3.org/2000/svg" fill="none" viewBox="0 0 512 512">
  <rect width="512" height="512" fill="#3178C6" rx="50"/>
  <path fill="#fff" fill-rule="evenodd" d="M316.94 407.42v50.06c8.14 4.18 17.76 7.3 28.87 9.4s22.83 3.12 35.14 3.12c12 0 23.4-1.15 34.2-3.44 10.8-2.3 20.26-6.08 28.4-11.34 8.14-5.27 14.58-12.15 19.33-20.65s7.12-19.01 7.12-31.53c0-9.07-1.36-17.02-4.07-23.85s-6.62-12.9-11.74-18.23c-5.1-5.32-11.24-10.09-18.39-14.31s-15.2-8.22-24.18-11.97a304.53 304.53 0 0 1-17.68-7.9 89.81 89.81 0 0 1-13.3-7.82 34.1 34.1 0 0 1-8.46-8.45 17.78 17.78 0 0 1-2.97-10.1c0-3.43.89-6.53 2.66-9.3s4.28-5.13 7.51-7.12a40.17 40.17 0 0 1 11.9-4.61 69 69 0 0 1 15.65-1.64 104.67 104.67 0 0 1 27.23 3.83c4.7 1.3 9.26 2.95 13.7 4.93a75.48 75.48 0 0 1 12.28 6.88V246.6c-7.62-2.92-15.94-5.08-24.96-6.49S415.8 238 404.1 238c-11.9 0-23.16 1.28-33.8 3.83s-20 6.55-28.1 11.97a59.8 59.8 0 0 0-19.17 20.73c-4.7 8.4-7.04 18.43-7.04 30.11 0 14.92 4.3 27.64 12.91 38.18 8.6 10.53 21.68 19.45 39.2 26.75 6.9 2.81 13.3 5.58 19.26 8.29s11.08 5.53 15.41 8.45c4.33 2.92 7.75 6.1 10.25 9.54a19.44 19.44 0 0 1 3.76 11.73c0 3.23-.78 6.23-2.35 9s-3.94 5.16-7.12 7.2-7.15 3.62-11.9 4.76c-4.74 1.15-10.3 1.72-16.66 1.72a96.21 96.21 0 0 1-61.82-22.84zm-84.16-123.34H297V243H118v41.08h63.9V467h50.88z" clip-rule="evenodd"/>
</svg>
