<svg xmlns="http://www.w3.org/2000/svg" viewBox="0 0 50 50"><g id="Layer_2" data-name="Layer 2"><g id="Layer_2-2" data-name="Layer 2"><rect width="50" height="50" style="fill:#ff9f1c"/><path d="M1.3,36.608,5.58,33.972C6.77,36.11,8.163,37.6,10.648,37.6c2.834,0,4.676-1.344,4.676-5.271V8.071H20.6V32.434c0,6.712-4.028,9.894-9.7,9.894A10.124,10.124,0,0,1,1.3,36.608Z"/><path d="M25.53,35.316l4.324-2.388c1.591,2.635,3.631,4.724,7.757,4.724,3.433,0,5.866-1.838,5.866-4.623,0-2.935-1.988-4.227-5.668-5.866l-2.235-1c-4.922-2.186-7.906-4.674-7.906-9.894,0-5.02,3.878-8.6,9.5-8.6,4.474,0,7.506,1.69,9.546,5.319l-4.129,2.537c-1.291-2.237-2.781-3.281-5.417-3.281-2.684,0-4.376,1.639-4.376,3.927,0,2.536,1.441,3.679,4.874,5.171l2.186.994c5.769,2.537,8.85,5.221,8.85,10.641,0,5.915-4.623,9.348-10.987,9.348C31.3,42.328,27.421,39.146,25.53,35.316Z"/></g></g></svg>